<?xml version="1.0" standalone="no"?>
<!DOCTYPE svg PUBLIC "-//W3C//DTD SVG 20010904//EN"
 "http://www.w3.org/TR/2001/REC-SVG-20010904/DTD/svg10.dtd">
<svg version="1.0" xmlns="http://www.w3.org/2000/svg"
 width="1598.000000pt" height="1591.000000pt" viewBox="0 0 1598.000000 1591.000000"
 preserveAspectRatio="xMidYMid meet">

<g transform="translate(0.000000,1591.000000) scale(0.100000,-0.100000)"
fill="#000000" stroke="none">
<path d="M7610 15144 c-680 -39 -1312 -157 -1918 -360 -2676 -891 -4587 -3272
-4877 -6074 -26 -257 -35 -445 -35 -745 0 -492 34 -863 125 -1360 20 -104 38
-207 40 -229 12 -92 83 -395 135 -577 222 -768 597 -1518 1095 -2184 1211
-1622 3048 -2666 5050 -2869 405 -41 970 -46 1360 -11 1929 172 3679 1090
4929 2585 211 252 455 597 633 895 92 153 249 443 298 550 15 33 43 94 62 135
78 168 195 466 258 654 88 266 183 639 210 831 1 11 19 108 38 215 93 505 127
873 127 1370 0 521 -43 941 -145 1445 -443 2185 -1905 4057 -3927 5030 -781
375 -1603 599 -2498 681 -166 15 -804 27 -960 18z m560 -1054 l0 -40 -75 0
-75 0 -2 -237 -3 -238 -42 -3 -43 -3 0 240 0 241 -75 0 -75 0 0 40 0 40 195 0
195 0 0 -40z m-826 -12 c14 -54 14 -54 -114 -68 -135 -14 -126 -5 -113 -109
l6 -53 66 6 c36 4 83 9 104 13 l37 6 0 -40 0 -40 -62 -7 c-35 -4 -79 -9 -98
-12 l-35 -6 9 -85 9 -85 61 6 c34 4 89 10 123 14 l61 8 7 -34 c3 -19 5 -36 3
-37 -5 -5 -321 -45 -325 -42 -4 5 -71 541 -68 545 3 3 267 39 301 41 15 1 24
-7 28 -21z m1476 -7 l125 -17 -2 -33 c0 -18 -3 -35 -6 -37 -2 -3 -56 2 -118
10 -63 8 -117 12 -120 8 -4 -4 -10 -37 -14 -74 l-6 -67 43 -6 c24 -3 68 -9 98
-13 l55 -8 -3 -34 c-1 -19 -4 -35 -6 -37 -2 -2 -45 2 -96 8 -75 10 -94 9 -100
-1 -9 -15 -24 -149 -18 -156 3 -2 56 -11 118 -19 62 -8 115 -17 117 -19 2 -2
1 -19 -2 -38 l-6 -34 -162 21 -162 21 3 39 c2 22 17 141 33 265 16 123 29 228
29 232 0 12 60 9 200 -11z m-2221 -384 l68 -248 -24 -10 c-55 -21 -58 -17 -93
114 -18 67 -36 128 -40 136 -5 9 -26 -42 -55 -132 l-47 -146 -90 77 c-49 42
-103 88 -120 101 -30 24 -30 24 -24 3 4 -12 22 -75 40 -141 l33 -120 -30 -11
c-45 -15 -54 -13 -60 18 -4 15 -37 138 -75 275 -49 175 -64 243 -53 235 9 -7
81 -69 161 -137 80 -69 152 -131 162 -138 15 -13 23 6 89 207 62 185 75 216
81 193 4 -15 39 -140 77 -276z m2924 248 c147 -40 190 -81 190 -181 0 -80 -35
-142 -98 -174 -28 -14 -51 -25 -52 -26 -2 0 17 -50 41 -110 24 -60 43 -110 42
-111 -1 -2 -22 3 -45 10 -43 12 -43 13 -85 116 -37 92 -45 106 -74 118 -37 15
-33 22 -60 -87 l-19 -75 -38 2 c-21 2 -40 5 -42 7 -4 4 104 426 128 504 6 17
14 32 17 32 4 0 47 -11 95 -25z m-4607 -5225 c374 -558 731 -1092 794 -1187
86 -128 118 -169 126 -160 6 7 363 539 794 1182 430 644 786 1174 791 1180 5
5 9 -581 9 -1362 l0 -1370 -25 2 c-14 2 -25 -1 -25 -7 0 -5 -9 -6 -20 -3 -11
3 -20 2 -20 -3 0 -5 -18 -12 -40 -16 -22 -3 -40 -11 -40 -16 0 -6 -15 -10 -34
-10 -19 0 -38 -5 -42 -12 -5 -7 -2 -8 7 -3 8 5 10 4 6 0 -10 -12 -39 -16 -32
-5 7 11 -22 7 -32 -5 -4 -4 -2 -5 6 0 10 6 12 4 7 -4 -5 -7 -14 -10 -21 -7 -7
2 -16 1 -21 -3 -5 -4 -29 -13 -54 -20 -51 -15 -89 -31 -109 -45 -41 -30 -40
-41 -41 562 0 317 -2 578 -4 580 -4 3 -87 -119 -699 -1028 -153 -228 -287
-422 -297 -431 -11 -9 -16 -19 -13 -23 4 -3 -1 -6 -11 -6 -9 0 -14 -4 -11 -10
4 -6 -1 -7 -11 -3 -11 4 -15 3 -11 -4 5 -7 -1 -9 -15 -5 -14 3 -19 1 -14 -6 3
-6 1 -14 -6 -18 -7 -4 -10 -4 -6 1 5 5 -1 15 -12 22 -11 8 -18 19 -15 24 4 5
2 9 -4 9 -11 0 -46 51 -603 877 -220 326 -404 595 -409 598 -5 4 -9 -340 -9
-899 l0 -906 -265 0 -265 0 0 1787 c0 1003 4 1783 9 1778 4 -6 314 -467 687
-1025z m6084 866 c142 -19 265 -50 385 -97 55 -22 106 -43 113 -47 9 -7 12
-76 10 -315 l-3 -306 -65 45 c-334 234 -792 269 -1167 89 -123 -58 -200 -112
-302 -209 -178 -170 -286 -358 -348 -606 -11 -44 -17 -122 -20 -240 -2 -128
-7 -176 -16 -178 -6 -2 -5 1 3 7 8 6 12 11 8 11 -3 0 -14 3 -24 7 -12 4 -15 3
-10 -5 4 -7 -3 -14 -19 -18 -14 -3 -25 -10 -25 -15 0 -5 -9 -9 -21 -9 -11 0
-17 5 -14 10 4 6 11 8 16 5 15 -10 10 1 -7 15 -12 11 -15 11 -12 -1 2 -8 -3
-13 -10 -11 -10 2 -10 -2 -2 -18 10 -19 8 -20 -39 -20 -34 0 -51 -4 -55 -15
-3 -8 -12 -12 -19 -9 -8 3 -17 -2 -21 -11 -3 -9 -10 -14 -16 -10 -5 3 -20 0
-32 -7 -31 -17 -47 -18 -55 -6 -3 6 -2 8 4 5 5 -3 10 0 10 8 0 13 -3 13 -17 0
-9 -8 -23 -15 -31 -16 -8 0 -6 -4 6 -9 15 -7 9 -9 -25 -9 -29 -1 -40 -4 -32
-10 10 -6 7 -10 -13 -13 -34 -7 -39 6 -55 151 -15 133 -8 320 16 461 77 449
347 865 727 1124 140 94 386 202 556 242 182 43 432 55 621 30z m-2447 -742
l37 -7 0 -713 0 -714 -24 -16 c-14 -9 -40 -14 -59 -13 -38 4 -65 -16 -61 -45
2 -16 1 -16 -15 -2 -15 14 -19 14 -39 0 -12 -8 -35 -14 -50 -13 -27 2 -82 -18
-82 -31 0 -6 -30 -13 -102 -24 -10 -1 -26 -10 -36 -19 -14 -13 -21 -14 -30 -5
-9 9 -12 8 -12 -4 0 -9 -4 -20 -10 -23 -7 -4 -10 270 -10 814 l0 821 228 0
c125 0 244 -3 265 -6z m1022 -1134 c3 -5 1 -10 -4 -10 -6 0 -11 5 -11 10 0 6
2 10 4 10 3 0 8 -4 11 -10z m-5776 -3431 c13 -17 22 -31 20 -33 -2 -1 -95 -76
-207 -165 -111 -89 -208 -164 -216 -167 -8 -3 -23 8 -35 25 l-21 30 157 127
c250 203 264 214 271 213 4 0 18 -14 31 -30z m8520 -83 l32 -33 -25 -7 c-14
-3 -42 -21 -62 -38 -116 -102 -69 -287 82 -327 89 -24 173 17 218 106 16 31
15 31 -20 62 -19 17 -38 31 -41 31 -4 0 -23 -16 -43 -35 l-36 -35 -23 24 c-27
29 -26 33 52 120 l43 49 86 -76 86 -77 -10 -42 c-45 -205 -293 -287 -450 -148
-61 53 -92 124 -91 210 0 74 18 122 65 176 29 33 83 74 99 74 3 0 20 -15 38
-34z m-8299 -431 c-22 -120 -38 -220 -36 -222 2 -3 102 16 221 41 119 25 218
46 221 46 3 0 -84 -92 -193 -205 l-198 -205 -29 29 -29 29 96 103 c53 57 95
104 93 106 -2 2 -66 -10 -142 -26 -77 -16 -141 -27 -143 -25 -4 4 34 233 46
279 3 11 -43 -27 -101 -85 l-106 -104 -29 28 -30 29 197 203 c108 111 198 201
200 199 2 -1 -15 -101 -38 -220z m7939 -256 c100 -116 181 -213 178 -215 -2
-2 -114 9 -248 24 -134 16 -245 28 -247 27 -2 -1 49 -63 113 -136 l117 -134
-33 -27 c-18 -16 -36 -25 -40 -20 -3 4 -82 95 -174 202 -93 107 -174 202 -182
211 -12 14 -11 16 9 13 43 -7 455 -54 472 -54 11 0 -24 47 -98 132 l-115 133
26 27 c15 16 29 28 33 28 3 0 88 -95 189 -211z m-7145 -391 c-24 -101 -55
-236 -70 -300 -15 -65 -30 -118 -33 -118 -3 0 -21 13 -38 28 l-33 27 15 55 c8
30 15 58 15 61 0 3 -36 31 -80 63 l-81 58 -51 -33 -51 -33 -33 20 c-19 10 -34
23 -35 28 -1 8 494 323 512 325 3 1 -13 -81 -37 -181z m6503 -121 l152 -222
-27 -22 c-15 -12 -31 -22 -37 -22 -5 0 -79 101 -164 226 -117 172 -150 228
-140 234 8 4 23 14 34 22 11 9 22 13 25 11 2 -3 73 -105 157 -227z m-520 -88
c84 -41 127 -161 87 -245 -9 -19 -15 -36 -13 -38 2 -3 51 -26 109 -53 l104
-49 -38 -23 -38 -24 -108 50 c-100 47 -109 49 -134 36 -14 -7 -26 -17 -26 -22
0 -4 18 -41 40 -81 22 -40 37 -76 34 -81 -3 -5 -18 -16 -34 -24 -29 -15 -29
-15 -53 27 -106 185 -238 441 -231 448 5 5 48 29 97 54 100 52 138 57 204 25z
m-5322 -18 c53 -24 105 -69 105 -89 -1 -10 -9 -32 -19 -50 l-17 -34 -29 37
c-51 67 -145 92 -223 60 -150 -63 -163 -265 -21 -344 56 -32 86 -25 116 26
l24 42 -43 22 c-24 12 -44 23 -46 24 -6 5 28 65 36 65 4 0 41 -20 84 -43 l76
-43 -55 -102 c-54 -101 -55 -102 -92 -102 -101 0 -207 65 -253 155 -31 60 -36
169 -11 226 29 64 80 119 138 145 64 30 170 33 230 5z m4768 -384 c75 -195 82
-221 73 -272 -9 -45 -68 -112 -121 -136 -48 -22 -133 -24 -178 -5 -56 23 -77
59 -151 253 l-72 188 29 13 c16 6 34 12 41 12 6 0 40 -78 76 -172 71 -189 96
-228 150 -228 71 0 144 56 142 110 0 17 -31 110 -67 206 -37 96 -66 176 -64
178 4 4 61 24 70 25 3 1 36 -77 72 -172z m-4123 93 c143 -54 131 -45 118 -82
-6 -18 -12 -34 -13 -35 0 -2 -26 7 -56 18 -30 12 -82 31 -116 44 l-61 23 -26
-70 c-15 -39 -25 -72 -24 -73 2 -1 44 -17 94 -36 l91 -33 -10 -33 c-6 -18 -15
-33 -21 -33 -5 0 -48 14 -93 32 -49 18 -87 27 -92 22 -4 -5 -20 -40 -35 -78
-19 -49 -24 -71 -16 -76 7 -4 58 -24 113 -45 56 -21 103 -39 104 -40 7 -4 -23
-65 -31 -65 -19 0 -305 113 -302 119 2 3 45 114 96 246 51 132 94 245 97 252
3 9 19 6 56 -9 29 -11 86 -33 127 -48z m3391 -196 l6 -31 -74 -17 c-40 -10
-73 -19 -73 -21 0 -2 25 -106 55 -231 30 -125 54 -228 53 -230 -2 -1 -20 -6
-40 -12 -44 -12 -32 -42 -104 256 -52 216 -42 204 -141 178 -57 -15 -58 -15
-67 29 l-7 30 168 42 c200 49 215 49 224 7z m-2143 -128 c28 -14 30 -19 25
-58 -3 -24 -7 -44 -8 -46 -1 -1 -24 9 -50 23 -139 73 -300 -35 -282 -191 14
-129 165 -205 281 -143 l39 21 -7 -49 c-7 -58 -22 -70 -91 -78 -98 -13 -196
31 -254 112 -77 106 -67 258 22 351 80 84 225 110 325 58z m1425 -14 c50 -29
77 -85 77 -162 0 -109 -55 -165 -176 -177 l-54 -6 1 -41 c0 -23 4 -64 8 -93 8
-57 4 -63 -50 -63 -16 0 -29 5 -29 10 0 6 -14 128 -30 272 -17 143 -29 262
-28 263 2 2 37 7 78 13 95 13 163 8 203 -16z m-720 -269 c58 -148 109 -276
113 -285 5 -16 0 -18 -39 -18 l-46 0 -21 59 -22 58 -51 7 c-29 3 -74 6 -100 6
l-49 0 -26 -60 -27 -60 -46 0 -46 0 121 280 c66 154 124 280 127 280 3 0 53
-120 112 -267z"/>
<path d="M9470 13818 c-6 -24 -18 -65 -26 -92 -19 -66 -19 -64 24 -75 96 -27
153 -2 168 74 11 58 -14 99 -72 119 -73 25 -82 22 -94 -26z"/>
<path d="M6923 6845 c0 -8 4 -12 9 -9 5 3 6 10 3 15 -9 13 -12 11 -12 -6z"/>
<path d="M9418 7683 c7 -3 16 -2 19 1 4 3 -2 6 -13 5 -11 0 -14 -3 -6 -6z"/>
<path d="M9266 7642 c-3 -5 1 -9 9 -9 8 0 12 4 9 9 -3 4 -7 8 -9 8 -2 0 -6 -4
-9 -8z"/>
<path d="M4657 3075 c-37 -24 -68 -47 -68 -50 -1 -13 95 -75 102 -68 8 10 43
153 38 158 -3 2 -35 -16 -72 -40z"/>
<path d="M10643 2817 c-24 -11 -43 -24 -43 -28 0 -15 92 -179 101 -179 17 0
84 37 100 56 9 11 20 29 23 41 9 29 -25 108 -52 122 -31 17 -82 12 -129 -12z"/>
<path d="M8613 2192 c-8 -5 -8 -31 0 -107 13 -111 4 -101 93 -97 50 3 94 48
94 97 0 43 -22 90 -49 105 -22 11 -120 13 -138 2z"/>
<path d="M7928 1982 c-15 -37 -30 -75 -34 -84 -5 -16 1 -18 60 -18 36 0 66 3
66 7 0 11 -52 147 -59 155 -3 4 -18 -23 -33 -60z"/>
</g>
</svg>
